<?xml version="1.0" standalone="no"?><!DOCTYPE svg PUBLIC "-//W3C//DTD SVG 1.1//EN" "http://www.w3.org/Graphics/SVG/1.1/DTD/svg11.dtd"><svg t="1780847027791" class="icon" viewBox="0 0 1024 1024" version="1.1" xmlns="http://www.w3.org/2000/svg" p-id="6481" width="16" height="16" xmlns:xlink="http://www.w3.org/1999/xlink"><path d="M508.928 144.896m-126.976 0a126.976 126.976 0 1 0 253.952 0 126.976 126.976 0 1 0-253.952 0Z" fill="currentColor" p-id="6482"></path><path d="M218.112 743.424l291.328-146.432 289.28 147.456c45.568-16.896 35.84-72.704 35.84-72.704l-33.792-141.824c-22.016-92.16-53.248-132.096-53.248-132.096-35.84-55.808-98.304-93.184-169.472-93.184H440.32c-71.168 0-133.632 37.376-169.472 93.184s-31.232 39.936-53.248 132.096l-33.792 141.824c0-0.512-9.728 53.76 34.304 71.68zM271.36 572.928l142.848-70.144 29.184-69.632c1.024-4.096 10.752-32.256 33.28-36.864 7.68-1.536 19.456-0.512 32.256 11.776 12.8-12.288 24.576-13.312 32.256-11.776 22.016 4.608 31.744 32.256 33.792 37.888l28.672 68.096 142.848 70.144c7.168 3.584 10.24 12.288 6.656 19.968-2.56 5.12-7.68 8.192-13.312 8.192-2.048 0-4.608-0.512-6.656-1.536l-147.456-71.68c-3.072-1.536-5.632-4.096-7.168-7.68l-31.232-74.752c-3.072-10.24-9.216-18.944-11.776-19.456-0.512 0-3.584 1.024-7.68 6.144-4.608 5.632-12.288 6.144-18.432 2.56-6.144 3.584-13.824 2.56-18.432-2.56-4.608-5.12-7.168-6.144-7.68-6.144-2.56 0.512-8.704 9.216-11.264 17.92L440.32 519.168c-1.536 3.072-4.096 6.144-7.168 7.68l-147.968 72.704c-2.048 1.024-4.096 1.536-6.656 1.536-5.632 0-10.752-3.072-13.312-8.192-4.608-7.168-1.536-16.384 6.144-19.968z" fill="currentColor" p-id="6483"></path><path d="M899.072 853.504L690.176 778.24v-56.32l-181.248-92.16L327.68 720.896V778.24l-208.384 75.264h1.024c-30.208 10.752-51.712 39.424-51.712 72.704v2.048c0 42.496 34.816 77.312 77.312 77.312h726.528c42.496 0 77.312-34.816 77.312-77.312v-2.048c0-33.28-21.504-61.952-50.688-72.704z" fill="currentColor" p-id="6484"></path></svg>