<?xml version="1.0" standalone="no"?><!DOCTYPE svg PUBLIC "-//W3C//DTD SVG 1.1//EN" "http://www.w3.org/Graphics/SVG/1.1/DTD/svg11.dtd"><svg t="1780843419724" class="icon" viewBox="0 0 1024 1024" version="1.1" xmlns="http://www.w3.org/2000/svg" p-id="11059" width="16" height="16" xmlns:xlink="http://www.w3.org/1999/xlink"><path d="M824.07619093 43.88571413H199.92380907c-85.82095253 0-156.03809493 70.2171424-156.03809494 156.03809494v624.15238186c0 85.82095253 70.2171424 156.03809493 156.03809494 156.03809494h624.15238186c85.82095253 0 156.03809493-70.2171424 156.03809494-156.03809494V199.92380907c0-85.82095253-70.2171424-156.03809493-156.03809494-156.03809494z m78.01904747 780.1904768c0 42.91047573-35.10857173 78.01904747-78.01904747 78.01904747H199.92380907c-42.91047573 0-78.01904747-35.10857173-78.01904747-78.01904747V199.92380907c0-42.91047573 35.10857173-78.01904747 78.01904747-78.01904747h624.15238186c42.91047573 0 78.01904747 35.10857173 78.01904747 78.01904747v624.15238186z m-546.13333333-78.01904853h312.07618986V668.03809493H355.96190507v78.01904747zM199.92380907 668.03809493h78.01904853V590.01904747H199.92380907v78.01904746z m0-390.09523733v78.01904747h78.01904853V277.9428576H199.92380907z m156.038096 234.0571424H277.9428576v78.01904747h78.01904747V512zM277.9428576 355.96190507v78.01904746h78.01904747V355.96190507H277.9428576z m156.03809493 78.01904746H355.96190507v78.01904747h78.01904746V433.98095253z" fill="currentColor" p-id="11060"></path></svg>