<?xml version="1.0" standalone="no"?><!DOCTYPE svg PUBLIC "-//W3C//DTD SVG 1.1//EN" "http://www.w3.org/Graphics/SVG/1.1/DTD/svg11.dtd"><svg t="1780842878145" class="icon" viewBox="0 0 1024 1024" version="1.1" xmlns="http://www.w3.org/2000/svg" p-id="3772" width="16" height="16" xmlns:xlink="http://www.w3.org/1999/xlink"><path d="M512 928c229.76 0 416-186.24 416-416S741.76 96 512 96 96 282.24 96 512s186.24 416 416 416z m0-64c-194.4 0-352-157.6-352-352s157.6-352 352-352 352 157.6 352 352-157.6 352-352 352z m1.36-213.52c7.76-0.32 15.424-3.424 21.344-9.344l181.008-181.024a32 32 0 1 0-45.248-45.248L512 573.312l-158.464-158.448a32 32 0 1 0-45.248 45.248L489.28 641.136c5.92 5.92 13.6 9.04 21.344 9.344h2.72z" transform="rotate(180 512 512)" fill="currentColor" p-id="3773"></path></svg>
